# xmcd
#
# Track frame offsets: 
#        150
#        19623
#        37472
#        55133
#        73059
#        92008
#        110232
#        125634
#        142370
#        159557
#        173059
#        196833
#        208532
#        224731
#        240930
#        257454
#
# Disc length: 3637 seconds
#
# Revision: 0
# Processed by: cddbd v1.5.2PL0 Copyright (c) Steve Scherf et al.
# Submitted via: ExactAudioCopy v0.95b4
#
DISCID=f50e3310
DTITLE=卓越 - 情弓 發燒二胡
DYEAR=1900
DGENRE=Country
TTITLE0=美麗的草原我的家
TTITLE1=敖包相會
TTITLE2=草原之夜
TTITLE3=花兒為什麼這樣紅
TTITLE4=月亮走我也走
TTITLE5=牧羊姑娘
TTITLE6=草原升起不落的太陽
TTITLE7=血染的風采
TTITLE8=山丹丹開花紅艷艷
TTITLE9=十五的月亮
TTITLE10=半個月亮爬上來
TTITLE11=金瓶似的小山
TTITLE12=繡荷包
TTITLE13=沂蒙山小調
TTITLE14=在那桃花盛開的地方
TTITLE15=知道不知道
EXTD=
EXTT0=
EXTT1=
EXTT2=
EXTT3=
EXTT4=
EXTT5=
EXTT6=
EXTT7=
EXTT8=
EXTT9=
EXTT10=
EXTT11=
EXTT12=
EXTT13=
EXTT14=
EXTT15=
PLAYORDER=
